<svg xmlns="http://www.w3.org/2000/svg" width="616.467" height="447.222" viewBox="0 0 616.467 447.222"><defs><style>.a{fill:#ebebeb;}.b{fill:#e0e0e0;}.c{fill:#e6e6e6;}.d{fill:#f0f0f0;}.e{fill:#f5f5f5;}.f{fill:#00014b;}.g,.k,.l,.m,.p{fill:#fff;}.g{opacity:0.4;}.h,.j,.l{opacity:0.2;}.i,.m{opacity:0.1;}.k{opacity:0.6;}.n{fill:#263238;}.o{fill:#e4897b;}.q{fill:#de5753;}</style></defs><g transform="translate(0 -55)"><g transform="translate(0 55)"><rect class="a" width="616.467" height="0.308" transform="translate(0 403.663)"/><rect class="a" width="40.835" height="0.308" transform="translate(513.862 423.5)"/><rect class="a" width="10.714" height="0.308" transform="translate(397.658 426.854)"/><rect class="a" width="23.66" height="0.308" transform="translate(488.969 412.059)"/><rect class="a" width="53.25" height="0.308" transform="translate(64.68 414.13)"/><rect class="a" width="7.804" height="0.308" transform="translate(128.916 414.13)"/><rect class="a" width="115.501" height="0.308" transform="translate(162.094 419.333)"/><path class="a" d="M283.3,403.674H45.238a7.04,7.04,0,0,1-7.028-7.04V61.978A7.04,7.04,0,0,1,45.238,55H283.3a7.04,7.04,0,0,1,7.04,7.04V396.634A7.04,7.04,0,0,1,283.3,403.674ZM45.238,55.247a6.732,6.732,0,0,0-6.719,6.732V396.634a6.732,6.732,0,0,0,6.719,6.732H283.3a6.744,6.744,0,0,0,6.732-6.732V61.978a6.744,6.744,0,0,0-6.732-6.732Z" transform="translate(8.9 -55)"/><path class="a" d="M499.62,403.674H261.54a7.052,7.052,0,0,1-7.04-7.04V61.978A7.052,7.052,0,0,1,261.54,55H499.62a7.04,7.04,0,0,1,7.015,6.978V396.634A7.04,7.04,0,0,1,499.62,403.674ZM261.54,55.247a6.744,6.744,0,0,0-6.732,6.732V396.634a6.744,6.744,0,0,0,6.732,6.732H499.62a6.744,6.744,0,0,0,6.732-6.732V61.978a6.744,6.744,0,0,0-6.732-6.732Z" transform="translate(59.282 -55)"/><path class="b" d="M147.089,393.688H61.93c9.235-8.483,30.971-7.965,30.971-7.965s-15.079-16.188-9.518-26.582,20.454,12.391,20.454,12.391-18.728-33.893-11.762-42.339S117.77,366.3,117.77,366.3s-11.38-48.22-4.537-49.589,13.994,45.729,13.994,45.729-2.466-43.054,3.292-41.821,3.008,57.405,3.008,57.405,5.795-28.666,8.261-19.517-2.466,28.74-2.466,28.74a7.4,7.4,0,0,1,7.768,6.436Z" transform="translate(14.426 5.956)"/><path class="b" d="M167.24,398.04H277.822c-11.984-11.01-40.218-10.332-40.218-10.332s19.579-21.046,12.329-34.522-26.545,16.028-26.545,16.028S247.7,325.2,238.652,314.226,205.3,362.433,205.3,362.433s14.8-62.621,5.881-64.4-18.161,59.378-18.161,59.378,3.193-55.9-4.291-54.311-3.847,74.555-3.847,74.555-7.521-37.222-10.739-25.349,3.218,37.321,3.218,37.321C169.989,389.78,167.857,394.847,167.24,398.04Z" transform="translate(38.956 1.603)"/><path class="b" d="M249.48,393.688h85.159c-9.235-8.483-30.971-7.965-30.971-7.965s15.079-16.188,9.518-26.582-20.454,12.391-20.454,12.391,18.728-33.893,11.762-42.339S278.8,366.3,278.8,366.3s11.38-48.22,4.537-49.589-13.994,45.729-13.994,45.729,2.466-43.054-3.292-41.821-2.971,57.405-2.971,57.405-5.795-28.666-8.261-19.517,2.466,28.74,2.466,28.74A7.4,7.4,0,0,0,249.48,393.688Z" transform="translate(58.112 5.956)"/><path class="b" d="M118.625,430.031c-3.773-57.948-12.859-206.233-11.577-268.965l-6.054-.407s-6.041,188.984-2.737,269.371Z" transform="translate(22.657 -30.388)"/><path class="b" d="M104.44,188.707l15.547-12.638,1.553-7.841,9.333-14.24,2.01-.727-9.21,16.1-.37,5.4L137.3,172.2l5.856-10.813,6.177-4.845.925,1.6-5.265,4.7-4.315,11.54-19.16,4.821L101.53,203.428Z" transform="translate(23.65 -32.112)"/><path class="b" d="M108.2,178.124l-.752,5.3-16.8-16.09-10.357-2.047L72.3,159.778l.542-.53,7.595,4.833,8.409.395-7.965-9.9-7.841-5.708.53-.333,7.866,5.092,12.946,13.106L93.1,154.748l-3-5.092-.3-1.406L93.58,153.8l9.839-3.243.826.616-10.1,3.588,1.825,13.217Z" transform="translate(16.841 -33.279)"/><path class="b" d="M166.921,160.272c.382-2.145-3.021-3.7-6.695-3.933a46.457,46.457,0,0,1-8.026-1.233c.345-.764.1-1.689.592-3.021,1.073-2.91.493-4.87-2.725-7.4s-6.461-2.034-13.562-1.233-6.066-2.367-12.428-5.413-28.518-1.775-32.6,1.06c-2.466,1.7-12.021.7-14.672,4.87s-18.321,3.058-16.25,6.756,4.574,3.785,4.155,9.863,5.092,4.044,10.591,6.325,4.759-2,8.359-2.269,2.6-.641,6.3-2.355,3.181.444,9.05,3.391c3.23,1.627,4.426-.345,5.425-2.466.6,1.369-.074,3.366,1.134,5.684.974,1.849,4.858,2.269,8.557,1.923,4.056,7.694,5.795,1.233,10.874,1.825,5.363.579,13.427-3.7,17.2-4.106s4.032-1.418,7.928,1.615,20.726-2.885,22.316-5.93S166.539,162.417,166.921,160.272Z" transform="translate(14.062 -36.066)"/><path class="b" d="M206.265,419.789c-3.575-56.653-9.863-166.015-8.914-214.814l-5.178-.345s-4.5,140.406-2.811,215.159Z" transform="translate(44.02 -20.146)"/><path class="b" d="M195.093,228.618l13.291-10.813,1.332-6.707,7.977-12.169,1.714-.629-7.866,13.76-.321,4.636,11.972-2.207,5.006-9.235,5.289-4.155.789,1.369-4.5,4.019-3.7,9.876-16.386,4.118-17.1,20.713Z" transform="translate(44.861 -21.621)"/><path class="b" d="M198.3,219.569l-.641,4.525-14.376-13.76-8.852-1.751-6.83-4.71.468-.456,6.485,4.13,7.188.345-6.806-8.47-6.707-4.882.456-.284,6.732,4.352,11.072,11.207-1.1-10.246-2.577-4.365-.247-1.2,3.23,4.747,8.421-2.774.7.53-8.631,3.07,1.554,11.306Z" transform="translate(39.04 -22.62)"/><path class="b" d="M248.526,204.3c.321-1.837-2.589-3.144-5.721-3.366a39.12,39.12,0,0,1-6.88-1.085c.3-.653.086-1.455.506-2.589.925-2.466.432-4.155-2.318-6.325s-5.536-1.738-11.565-1.036-5.178-2.022-10.628-4.623-24.387-1.517-27.877.9c-2.1,1.455-10.283.616-12.551,4.18S155.785,193,157.56,196.1s3.9,3.243,3.551,8.421,4.34,3.452,9.05,5.4,4.081-1.7,7.151-1.936,2.232-.542,5.388-2.01,2.725.37,7.743,2.9c2.762,1.393,3.785-.3,4.648-2.059.505,1.171-.074,2.885.962,4.858.826,1.59,4.155,1.948,7.311,1.652,3.465,6.584,4.932,1.085,9.309,1.566,4.574.493,11.479-3.132,14.709-3.514s3.44-1.233,6.781,1.381,17.73-2.466,19.086-5.08S248.144,206.135,248.526,204.3Z" transform="translate(36.664 -25.005)"/><path class="c" d="M176.568,385.909c-1.147-8.113-22.735-174.916-27.63-278.409H140.85s4.55,209.093,18.1,285.313Z" transform="translate(32.809 -42.771)"/><path class="d" d="M86.92,400.921H301.611c-23.29-12.7-78.082-11.91-78.082-11.91s38.011-24.252,23.993-39.787-51.549,18.494-51.549,18.494,47.2-50.723,29.59-63.373S160.8,359.9,160.8,359.9s28.666-72.176,11.429-74.223-35.274,68.44-35.274,68.44,6.165-64.433-8.322-62.6-7.484,85.923-7.484,85.923-14.6-42.894-20.837-29.221,6.263,43.017,6.263,43.017C92.234,391.4,88.1,397.246,86.92,400.921Z" transform="translate(20.247 -1.277)"/><path class="c" d="M148.055,144.987l19.554-18.21,1.356-10.579,11.146-19.8,2.6-1.147L171.9,117.5v7.225l18.4-4.673,6.83-14.906,7.78-7.028,1.369,2.047L199.69,106.9l-4.7,15.757-25.066,8.15L145.49,164.837Z" transform="translate(33.89 -45.624)"/><path class="c" d="M152.751,130.342l-.518,7.1-23.82-19.887-13.969-1.8-11.133-6.621.69-.752,10.529,5.745,11.232-.21-11.5-12.477L103.31,94.55l.69-.493,10.924,6.078,18.408,16.275-2.786-15.843-4.451-6.51-.518-1.837,5.536,7.052,12.8-5.215,1.147.752-13.106,5.7,3.613,17.421Z" transform="translate(24.064 -46.33)"/><path class="d" d="M229.269,101.885c.308-2.885-4.352-4.624-9.259-4.624a63.683,63.683,0,0,1-10.8-.962c.382-1.06,0-2.281.505-4.093,1.171-3.958.234-6.522-4.291-9.592s-8.791-2.133-18.1-.395-8.273-2.6-17.027-6.078-38.11.21-43.288,4.34c-3.107,2.466-15.942,2.022-19.1,7.817S83.746,94.081,86.828,98.7s6.448,4.636,6.448,12.736,7.126,4.932,14.66,7.4,6.165-3.082,10.924-3.773,3.4-1.085,8.174-3.7,4.266.3,12.329,3.7c4.451,1.874,5.869-.851,7.015-3.7.912,1.775.21,4.5,2.022,7.472,1.455,2.38,6.67,2.577,11.553,1.788,6.091,9.863,7.829,1.233,14.647,1.455,7.176.284,17.532-6.078,22.526-7.015s5.228-2.244,10.7,1.43,27.322-5.7,29.159-9.863S228.961,104.782,229.269,101.885Z" transform="translate(20.154 -50.398)"/><path class="e" d="M440.174,112.756a8.347,8.347,0,0,0-8.347-8.347,8.137,8.137,0,0,0-2.392.358A17.645,17.645,0,0,0,408.7,84.843a15.436,15.436,0,0,0-28.629,7.8h-.259a14.24,14.24,0,1,0,0,28.468h52.252A8.347,8.347,0,0,0,440.174,112.756Z" transform="translate(85.056 -49.778)"/><path class="e" d="M294.085,175.943a8.335,8.335,0,0,0-8.347-8.335,8.5,8.5,0,0,0-2.392.345,17.675,17.675,0,0,0-20.775-19.924,15.449,15.449,0,0,0-28.6,7.841h-.2a14.24,14.24,0,1,0,0,28.468h52.252A8.335,8.335,0,0,0,294.085,175.943Z" transform="translate(51.038 -35.043)"/><path class="e" d="M451.243,259.366a8.347,8.347,0,0,0-8.347-8.347,8.137,8.137,0,0,0-2.392.358,17.645,17.645,0,0,0-20.738-19.924,15.436,15.436,0,0,0-28.629,7.8h-.259a14.228,14.228,0,1,0,0,28.456H443.13A8.347,8.347,0,0,0,451.243,259.366Z" transform="translate(87.735 -15.628)"/><path class="e" d="M107.319,226.17a5.055,5.055,0,0,0-5.043-5.043,5.13,5.13,0,0,0-1.455.222,10.69,10.69,0,0,0-10.529-12.231,10.255,10.255,0,0,0-1.96.185,9.333,9.333,0,0,0-17.261,4.722h-.16a8.631,8.631,0,0,0,0,17.261h31.5A5.043,5.043,0,0,0,107.319,226.17Z" transform="translate(14.507 -20.085)"/><path class="e" d="M324.244,97.752a5.043,5.043,0,0,0-6.485-4.833,10.69,10.69,0,0,0-10.566-12.231,11.5,11.5,0,0,0-1.973.185A9.333,9.333,0,0,0,287.958,85.6h-.148a8.631,8.631,0,1,0,0,17.261H319.4A5.03,5.03,0,0,0,324.244,97.752Z" transform="translate(65.03 -50.001)"/></g><g transform="translate(329.837 114.976)"><path class="f" d="M373.085,406.944s-4.007-.21-4.4-11.1,6.658-13.883,12.083-12.539c0,0-.789-7.8,2.725-7.509s3.28,5.487,3.28,5.487,1.233-11.1,6-11.1,0,13.081,0,13.081,6.646-3.193,9.087,0-3.045,6.929-3.045,6.929,8.631,2.811,5.006,11.738c0,0,6,.937,7.681,4.932,0,0-.481-8.076,1.689-7.533s1.677,7.62,1.677,7.62,3.6-7.767,6.72-5.03-1.43,9.333-1.43,9.333,6-2.91,6.954.949-3.354,5.3-3.354,5.3S430,416.067,430,423.231c0,0,12.009-1.147,14.894,5.289H373.38Z" transform="translate(-243.962 -41.558)"/><path class="g" d="M373.085,406.944s-4.007-.21-4.4-11.1,6.658-13.883,12.083-12.539c0,0-.789-7.8,2.725-7.509s3.28,5.487,3.28,5.487,1.233-11.1,6-11.1,0,13.081,0,13.081,6.646-3.193,9.087,0-3.045,6.929-3.045,6.929,8.631,2.811,5.006,11.738c0,0,6,.937,7.681,4.932,0,0-.481-8.076,1.689-7.533s1.677,7.62,1.677,7.62,3.6-7.767,6.72-5.03-1.43,9.333-1.43,9.333,6-2.91,6.954.949-3.354,5.3-3.354,5.3S430,416.067,430,423.231c0,0,12.009-1.147,14.894,5.289H373.38Z" transform="translate(-243.962 -41.558)"/><path class="f" d="M348.424,336.691c-1.726,28.357-11.1,133.157-11.1,133.157l67.7.629L385.992,281.111l30.379-9.272,6.374-18.408L448.4,238.92l12.539-19.258-4.845-1.233L442.25,236.207,426.1,239.721l6.917-16.386h-7.669l-19.234,37.95-19.727,4.044-1.8-69.044c-19.826,9.259-26.163-6.165-26.163-6.165s-5.129,108.079-8.014,116.241h0a42.413,42.413,0,0,1-8.1-5.856,94.689,94.689,0,0,1-17.261-20.417l-1.233-2.034H317.65Z" transform="translate(-255.845 -83.502)"/><g class="h" transform="translate(61.805 106.618)"><path d="M348.424,336.691c-1.726,28.357-11.1,133.157-11.1,133.157l67.7.629L385.992,281.111l30.379-9.272,6.374-18.408L448.4,238.92l12.539-19.258-4.845-1.233L442.25,236.207,426.1,239.721l6.917-16.386h-7.669l-19.234,37.95-19.727,4.044-1.8-69.044c-19.826,9.259-26.163-6.165-26.163-6.165s-5.129,108.079-8.014,116.241h0a42.413,42.413,0,0,1-8.1-5.856,94.689,94.689,0,0,1-17.261-20.417l-1.233-2.034H317.65Z" transform="translate(-317.65 -190.12)"/></g><path class="i" d="M406.924,242.955l-8.248,15.9-25.805,6.535s.086-4.056.505-9.259l.111,3.9,19.727-4.044,19.271-37.95h7.693l-6.917,16.386,16.151-3.514,13.846-17.779.678.16-10.665,16.139Z" transform="translate(-242.983 -78.142)"/><path class="f" d="M371.238,341.56l6.091,93.493-10.739-.1V361.164Z" transform="translate(-244.446 -48.227)"/><path class="f" d="M348.433,336.68,317.61,278.1h6.165l1.233,2.034a94.689,94.689,0,0,0,17.261,20.417,42.411,42.411,0,0,0,8.1,5.856c2.885-8.162,8.014-116.241,8.014-116.241a15.93,15.93,0,0,0,10.406,8.631q.431,52.363.875,104.725c2.182-4.932,4.081-9.728,4.266-14.894.653,14.3,1.529,29.677,1.467,43.794l-11.861,43.757-2.293,93.876-23.87-.222S346.707,365.037,348.433,336.68Z" transform="translate(-255.855 -83.491)"/><path class="f" d="M283.905,173.941c-9.863,3.526-16.682,13.969-16.373,24.461a28.111,28.111,0,0,0,17.1,24.363,31.033,31.033,0,0,0,29.825-3.933c.432,10.073,7.311,21.021,16.916,24.067a25.386,25.386,0,0,0,27.125-8.483c25.892,16.262,116.512,22.291,132.442-46.962,3.28-14.3-4.685-29.442-16.361-38.332S448.058,136.6,433.5,134.807c-13.821-22.008-44.472-34.029-70.277-30.577s-48.652,22.945-56.185,47.813C280.786,152.167,283.523,175.7,283.905,173.941Z" transform="translate(-267.522 -103.645)"/><g class="h"><path d="M283.905,173.941c-9.863,3.526-16.682,13.969-16.373,24.461a28.111,28.111,0,0,0,17.1,24.363,31.033,31.033,0,0,0,29.825-3.933c.432,10.073,7.311,21.021,16.916,24.067a25.386,25.386,0,0,0,27.125-8.483c25.892,16.262,116.512,22.291,132.442-46.962,3.28-14.3-4.685-29.442-16.361-38.332S448.058,136.6,433.5,134.807c-13.821-22.008-44.472-34.029-70.277-30.577s-48.652,22.945-56.185,47.813C280.786,152.167,283.523,175.7,283.905,173.941Z" transform="translate(-267.522 -103.645)"/></g><path class="f" d="M310.717,282.34a13.858,13.858,0,0,0,24.794-3.884c6.165,4.315,15.609,3.255,21.823-.949a18.63,18.63,0,0,0-8.076-33.906,22.193,22.193,0,0,0-10.394-16.928,24.178,24.178,0,0,0-20.689-2.182,25.337,25.337,0,0,0-22.02,7.114c-4.155,4.032-6.917,9.753-6.436,15.523s4.7,11.306,10.381,12.4a17,17,0,0,0-.592,13.5C301.347,277.322,306.3,280.7,310.717,282.34Z" transform="translate(-262.364 -75.818)"/><path class="j" d="M310.717,282.34a13.858,13.858,0,0,0,24.794-3.884c6.165,4.315,15.609,3.255,21.823-.949a18.63,18.63,0,0,0-8.076-33.906,22.193,22.193,0,0,0-10.394-16.928,24.178,24.178,0,0,0-20.689-2.182,25.337,25.337,0,0,0-22.02,7.114c-4.155,4.032-6.917,9.753-6.436,15.523s4.7,11.306,10.381,12.4a17,17,0,0,0-.592,13.5C301.347,277.322,306.3,280.7,310.717,282.34Z" transform="translate(-262.364 -75.818)"/><path class="f" d="M419.245,186.42a13.858,13.858,0,0,0-17.483,18c-7.5.234-14.438,6.781-16.879,13.87a18.617,18.617,0,0,0,26.767,22.279,22.193,22.193,0,0,0,18.494,7.274,24.227,24.227,0,0,0,17.865-10.677,25.349,25.349,0,0,0,13.365-18.876c.9-5.709-.321-11.947-4.18-16.275s-10.542-6.165-15.745-3.7a17,17,0,0,0-7.632-11.1C429.762,184.818,423.757,185.089,419.245,186.42Z" transform="translate(-240.422 -84.599)"/><path class="i" d="M419.245,186.42a13.858,13.858,0,0,0-17.483,18c-7.5.234-14.438,6.781-16.879,13.87a18.617,18.617,0,0,0,26.767,22.279,22.193,22.193,0,0,0,18.494,7.274,24.227,24.227,0,0,0,17.865-10.677,25.349,25.349,0,0,0,13.365-18.876c.9-5.709-.321-11.947-4.18-16.275s-10.542-6.165-15.745-3.7a17,17,0,0,0-7.632-11.1C429.762,184.818,423.757,185.089,419.245,186.42Z" transform="translate(-240.422 -84.599)"/><path class="f" d="M379.369,425.9s-24.868-16.114-20.146-18.852,21.293,13.377,21.293,13.377-18.321-26.8-13.8-32.18,16.719,21.848,16.719,21.848-8.285-31.119-2.466-34.522,7.977,31.181,7.977,31.181,2.281-37.481,13.007-36.988-4.932,36.988-4.932,36.988,15.128-21.687,20.491-15.535S400.44,414.64,400.44,414.64s16.78-7.878,17.9-2.034-18.494,12.07-18.494,12.07,6.3,1.812,7.767,3.933H374.1S373.562,427.018,379.369,425.9Z" transform="translate(-246.301 -41.659)"/><path class="k" d="M379.369,425.9s-24.868-16.114-20.146-18.852,21.293,13.377,21.293,13.377-18.321-26.8-13.8-32.18,16.719,21.848,16.719,21.848-8.285-31.119-2.466-34.522,7.977,31.181,7.977,31.181,2.281-37.481,13.007-36.988-4.932,36.988-4.932,36.988,15.128-21.687,20.491-15.535S400.44,414.64,400.44,414.64s16.78-7.878,17.9-2.034-18.494,12.07-18.494,12.07,6.3,1.812,7.767,3.933H374.1S373.562,427.018,379.369,425.9Z" transform="translate(-246.301 -41.659)"/></g><g transform="translate(52.905 359.267)"><path class="f" d="M120.815,374.57c-.086-.444-8.421-43.683-16.558-49.441-7.9-5.573-14.8,2.084-15.042,2.466l-.925-.8c.074-.1,7.878-8.815,16.669-2.6,8.557,6.029,16.719,48.4,17.064,50.205Z" transform="translate(-32.339 -297.084)"/><path class="f" d="M117.618,375.66c0-.3-3.082-30.022-12.662-39.146-2.318-2.207-4.587-3.07-6.744-2.564-5.129,1.171-8.3,9.469-8.322,9.555l-1.159-.431c.136-.37,3.428-9,9.2-10.332,2.589-.592,5.24.37,7.878,2.873,9.863,9.444,12.921,38.689,13.044,39.922Z" transform="translate(-32.237 -294.611)"/><path class="f" d="M109.771,328.648s5.573-1.122,6.646,3.7-9.272,20.109-9.272,20.109-9.395-1.812-9.395-14.166S107.922,325.9,109.771,328.648Z" transform="translate(-30.136 -295.868)"/><path class="l" d="M109.771,328.648s5.573-1.122,6.646,3.7-9.272,20.109-9.272,20.109-9.395-1.812-9.395-14.166S107.922,325.9,109.771,328.648Z" transform="translate(-30.136 -295.868)"/><path class="f" d="M98.751,336.525s2.244-2.466-.7-3.07S81.5,335.379,83.487,348.941c0,0,16.324.136,17.483-5.339S98.751,336.525,98.751,336.525Z" transform="translate(-33.504 -294.425)"/><path class="l" d="M98.751,336.525s2.244-2.466-.7-3.07S81.5,335.379,83.487,348.941c0,0,16.324.136,17.483-5.339S98.751,336.525,98.751,336.525Z" transform="translate(-33.504 -294.425)"/><path class="f" d="M113.6,317.445s-.629-2.466,1.566-1.825,10.542,7.225,4.3,15.683c0,0-11.1-5.795-9.863-9.863S113.6,317.445,113.6,317.445Z" transform="translate(-27.396 -298.585)"/><path class="l" d="M113.6,317.445s-.629-2.466,1.566-1.825,10.542,7.225,4.3,15.683c0,0-11.1-5.795-9.863-9.863S113.6,317.445,113.6,317.445Z" transform="translate(-27.396 -298.585)"/><path class="f" d="M279.413,384.121l-1.233-.333c.148-.505,14.376-51.142,40.107-64.778l.579,1.085C293.641,333.5,279.549,383.616,279.413,384.121Z" transform="translate(11.892 -297.77)"/><path class="f" d="M279.582,380.837l-1.122-.518c.259-.53,24.807-54.187,16.349-71.227l1.1-.543C304.635,326.107,280.605,378.618,279.582,380.837Z" transform="translate(11.958 -300.207)"/><path class="f" d="M278.823,384.816l-1.233-.358c.838-2.786,20.553-68.268,33.166-76.319l.666,1.036C299.24,316.98,279.02,384.138,278.823,384.816Z" transform="translate(11.755 -300.302)"/><path class="f" d="M298.714,312.6s3.7.974,4.229-1.233-10.788-12.958-22.193-7.052c0,0,1.726,10.677,9.025,13.562S298.714,312.6,298.714,312.6Z" transform="translate(12.491 -301.602)"/><path class="l" d="M298.714,312.6s3.7.974,4.229-1.233-10.788-12.958-22.193-7.052c0,0,1.726,10.677,9.025,13.562S298.714,312.6,298.714,312.6Z" transform="translate(12.491 -301.602)"/><path class="f" d="M303.033,310.077s-3.8.321-3.933-2,12.884-10.887,23.044-3.082c0,0-3.576,10.209-11.269,11.824S303.033,310.077,303.033,310.077Z" transform="translate(16.765 -301.783)"/><path class="l" d="M303.033,310.077s-3.8.321-3.933-2,12.884-10.887,23.044-3.082c0,0-3.576,10.209-11.269,11.824S303.033,310.077,303.033,310.077Z" transform="translate(16.765 -301.783)"/><path class="f" d="M312.754,317.358s-1.677-2.9,1.319-2.848,15.806,5.277,11.035,18.112c0,0-16.028-3.267-16.028-8.852S312.754,317.358,312.754,317.358Z" transform="translate(19.09 -298.819)"/><path class="l" d="M312.754,317.358s-1.677-2.9,1.319-2.848,15.806,5.277,11.035,18.112c0,0-16.028-3.267-16.028-8.852S312.754,317.358,312.754,317.358Z" transform="translate(19.09 -298.819)"/><path class="f" d="M303.595,322.959s.7-2.466,2.281-.789,5.511,11.516-4.106,15.732c0,0-6.72-10.554-3.637-13.562S303.595,322.959,303.595,322.959Z" transform="translate(16.352 -297.17)"/><path class="l" d="M303.595,322.959s.7-2.466,2.281-.789,5.511,11.516-4.106,15.732c0,0-6.72-10.554-3.637-13.562S303.595,322.959,303.595,322.959Z" transform="translate(16.352 -297.17)"/><path class="f" d="M93.829,323.788s1.233-2.269-1.073-2.158-12,4.4-8.039,14.129c0,0,12.181-2.873,12.046-7.151S93.829,323.788,93.829,323.788Z" transform="translate(-33.39 -297.161)"/><path class="l" d="M93.829,323.788s1.233-2.269-1.073-2.158-12,4.4-8.039,14.129c0,0,12.181-2.873,12.046-7.151S93.829,323.788,93.829,323.788Z" transform="translate(-33.39 -297.161)"/><path class="f" d="M269.375,401.942s-8.137-.321-8.939-16.731S274,364.424,284.984,366.434c0,0-1.615-11.688,5.536-11.257s6.658,8.236,6.658,8.236,2.466-16.571,12.194-16.583,0,19.6,0,19.6,13.5-4.784,18.494,0-6.165,10.381-6.165,10.381,17.5,4.2,10.184,17.594c0,0,12.194,1.406,15.609,7.4,0,0-.974-12.1,3.415-11.281s3.4,11.417,3.4,11.417,7.324-11.651,13.661-7.533-2.922,13.981-2.922,13.981,12.194-4.365,14.142,1.418-6.83,7.952-6.83,7.952,12.687-2.17,12.687,8.569c0,0,24.387-1.726,30.244,7.915H269.868Z" transform="translate(7.752 -291.29)"/><path class="g" d="M269.375,401.942s-8.137-.321-8.939-16.731S274,364.424,284.984,366.434c0,0-1.615-11.688,5.536-11.257s6.658,8.236,6.658,8.236,2.466-16.571,12.194-16.583,0,19.6,0,19.6,13.5-4.784,18.494,0-6.165,10.381-6.165,10.381,17.5,4.2,10.184,17.594c0,0,12.194,1.406,15.609,7.4,0,0-.974-12.1,3.415-11.281s3.4,11.417,3.4,11.417,7.324-11.651,13.661-7.533-2.922,13.981-2.922,13.981,12.194-4.365,14.142,1.418-6.83,7.952-6.83,7.952,12.687-2.17,12.687,8.569c0,0,24.387-1.726,30.244,7.915H269.868Z" transform="translate(7.752 -291.29)"/><path class="f" d="M150.36,401.942s6-.321,6.6-16.731-9.974-20.787-18.112-18.778c0,0,1.233-11.688-4.081-11.257s-4.932,8.236-4.932,8.236-1.8-16.571-9-16.583,0,19.6,0,19.6-9.95-4.784-13.562,0,4.574,10.381,4.574,10.381-12.909,4.2-7.509,17.594c0,0-9,1.406-11.516,7.4,0,0,.715-12.1-2.466-11.281s-2.466,11.417-2.466,11.417-5.388-11.651-10.073-7.533,2.158,13.981,2.158,13.981-8.988-4.365-10.431,1.418,5.043,7.952,5.043,7.952-9.358-2.17-9.358,8.569c0,0-17.989-1.726-22.316,7.915H150.175Z" transform="translate(-42.91 -291.29)"/><path class="g" d="M150.36,401.942s6-.321,6.6-16.731-9.974-20.787-18.112-18.778c0,0,1.233-11.688-4.081-11.257s-4.932,8.236-4.932,8.236-1.8-16.571-9-16.583,0,19.6,0,19.6-9.95-4.784-13.562,0,4.574,10.381,4.574,10.381-12.909,4.2-7.509,17.594c0,0-9,1.406-11.516,7.4,0,0,.715-12.1-2.466-11.281s-2.466,11.417-2.466,11.417-5.388-11.651-10.073-7.533,2.158,13.981,2.158,13.981-8.988-4.365-10.431,1.418,5.043,7.952,5.043,7.952-9.358-2.17-9.358,8.569c0,0-17.989-1.726-22.316,7.915H150.175Z" transform="translate(-42.91 -291.29)"/><path class="f" d="M94.018,426.112S118.874,410,114.189,407.285s-21.33,13.365-21.33,13.365,18.321-26.8,13.8-32.18-16.719,21.848-16.719,21.848S98.222,379.2,92.4,375.8s-8,31.193-8,31.193S82.133,369.5,71.394,370s4.932,36.988,4.932,36.988S61.173,385.277,55.8,391.442s17.064,23.426,17.064,23.426-16.78-7.878-17.853-2.01S73.5,424.928,73.5,424.928s-6.313,1.812-7.767,3.921H99.283S99.813,427.246,94.018,426.112Z" transform="translate(-40.102 -285.894)"/><path class="k" d="M94.018,426.112S118.874,410,114.189,407.285s-21.33,13.365-21.33,13.365,18.321-26.8,13.8-32.18-16.719,21.848-16.719,21.848S98.222,379.2,92.4,375.8s-8,31.193-8,31.193S82.133,369.5,71.394,370s4.932,36.988,4.932,36.988S61.173,385.277,55.8,391.442s17.064,23.426,17.064,23.426-16.78-7.878-17.853-2.01S73.5,424.928,73.5,424.928s-6.313,1.812-7.767,3.921H99.283S99.813,427.246,94.018,426.112Z" transform="translate(-40.102 -285.894)"/><path class="f" d="M96.73,441.163s28.6-105.256,33.807-109.152,34.88-14.882,34.88-14.882,72.188,12.058,83.038,10.862,45.717-7.9,50.723,0,24.745,55.4,24.745,55.4l27.729,11.7,17.569,46.075Z" transform="translate(-30.374 -298.208)"/><path class="k" d="M369.218,441.159H96.74s28.468-104.8,33.77-109.139h0a38.919,38.919,0,0,1,5.832-3.144c10.307-4.8,29.048-11.725,29.048-11.725s72.188,12.058,83.038,10.862,45.717-7.915,50.723,0c1.06,1.689,2.8,5.166,4.87,9.6,7.669,16.336,19.9,45.754,19.9,45.754l27.729,11.713Z" transform="translate(-30.371 -298.204)"/><path class="i" d="M296.552,337.6l-10.763,10.653-28.049-6.621L226,348.225l2.034,12.268-11.553,13.76,4.106-13.76-8.963-15.1s-36.519,2.219-46.05,0c-5.98-1.393-24.067-10.2-36.667-16.534,10.307-4.8,29.048-11.725,29.048-11.725S230.146,329.188,241,327.992s45.717-7.915,50.723,0C292.742,329.681,294.481,333.158,296.552,337.6Z" transform="translate(-22.878 -298.208)"/><path class="i" d="M369.218,438.349H96.74s28.468-104.8,33.77-109.139h0l-17.557,81.67,8.778,13.562,21.576-16.373,16.632,9.173,22.957-4.636,2.281-11.1L217.7,380.118l-20.417,18.913,7.188,21.576L235.729,426h34.522l14.216-9.506-4.759-19.357-7.188-11.22,36.433-.086-15.51,9.6,5.721,17.051,17.545,8.137L337.1,408.031l8.31,24.018Z" transform="translate(-30.371 -295.395)"/><path class="f" d="M288.2,421.454h45.162s-8.988-13.76-12.823-12.009c-4.993,2.269-8.692-10.2-14.216-7.25-1.948,1.048-.986,4.377-2.219,5.721-2.022,2.219-4.6,1.788-7.04,3.008C292.269,413.317,290.567,416.473,288.2,421.454Z" transform="translate(14.226 -278.499)"/><path class="j" d="M288.2,421.454h45.162s-8.988-13.76-12.823-12.009c-4.993,2.269-8.692-10.2-14.216-7.25-1.948,1.048-.986,4.377-2.219,5.721-2.022,2.219-4.6,1.788-7.04,3.008C292.269,413.317,290.567,416.473,288.2,421.454Z" transform="translate(14.226 -278.499)"/><path class="f" d="M321.141,422.524s-2.971-17.2-.925-19.727,2.4,9.383,2.4,9.383S329.5,387.324,333.9,387.2s-5.154,21.564-5.154,21.564,18.815-30.749,24.276-27.889S333.3,411,333.3,411s13.76-11.848,16.793-8.495-15.276,13.562-15.276,13.562,8.076-1.812,8.063.875S329.216,424.053,321.141,422.524Z" transform="translate(21.516 -283.404)"/><path class="l" d="M321.141,422.524s-2.971-17.2-.925-19.727,2.4,9.383,2.4,9.383S329.5,387.324,333.9,387.2s-5.154,21.564-5.154,21.564,18.815-30.749,24.276-27.889S333.3,411,333.3,411s13.76-11.848,16.793-8.495-15.276,13.562-15.276,13.562,8.076-1.812,8.063.875S329.216,424.053,321.141,422.524Z" transform="translate(21.516 -283.404)"/><path class="f" d="M323.122,419.56S308.98,417,307.611,414.7s7.928.789,7.928.789S298.278,403.162,299.4,399.71s15.2,10.122,15.2,10.122-18.494-23.228-14.709-26.656,17.742,23.746,17.742,23.746-5.277-13.994-1.837-15.4,6.165,15.658,6.165,15.658.875-6.757,2.947-5.992S326.586,413.741,323.122,419.56Z" transform="translate(16.823 -282.893)"/><path class="l" d="M323.122,419.56S308.98,417,307.611,414.7s7.928.789,7.928.789S298.278,403.162,299.4,399.71s15.2,10.122,15.2,10.122-18.494-23.228-14.709-26.656,17.742,23.746,17.742,23.746-5.277-13.994-1.837-15.4,6.165,15.658,6.165,15.658.875-6.757,2.947-5.992S326.586,413.741,323.122,419.56Z" transform="translate(16.823 -282.893)"/><path class="f" d="M320.3,422.05s-13.661-13.673-13.414-17.261,8.162,6.954,8.162,6.954-9.629-26.89-5.721-29.812,9.025,22.859,9.025,22.859-2.589-39.848,4.192-40.687,1.381,39.824,1.381,39.824,4.932-19.493,9.79-18.408-5.178,22.033-5.178,22.033,6.165-6.793,7.854-4.352S328.59,418.228,320.3,422.05Z" transform="translate(18.579 -287.27)"/><path class="m" d="M320.3,422.05s-13.661-13.673-13.414-17.261,8.162,6.954,8.162,6.954-9.629-26.89-5.721-29.812,9.025,22.859,9.025,22.859-2.589-39.848,4.192-40.687,1.381,39.824,1.381,39.824,4.932-19.493,9.79-18.408-5.178,22.033-5.178,22.033,6.165-6.793,7.854-4.352S328.59,418.228,320.3,422.05Z" transform="translate(18.579 -287.27)"/><path class="f" d="M304.34,420.7h35.989s-7.163-10.961-10.221-9.568c-3.97,1.812-6.917-8.125-11.318-5.77-1.553.826-.8,3.477-1.775,4.55-1.615,1.775-3.7,1.43-5.61,2.4C307.62,414.211,306.226,416.726,304.34,420.7Z" transform="translate(17.986 -277.741)"/><path class="f" d="M130.525,421.454H85.4s9-13.76,12.835-12.009c4.932,2.269,8.631-10.2,14.2-7.25,1.948,1.048,1,4.377,2.232,5.721,2.022,2.219,4.6,1.788,7.04,3.008C126.506,413.317,128.207,416.473,130.525,421.454Z" transform="translate(-33.013 -278.499)"/><path class="j" d="M130.525,421.454H85.4s9-13.76,12.835-12.009c4.932,2.269,8.631-10.2,14.2-7.25,1.948,1.048,1,4.377,2.232,5.721,2.022,2.219,4.6,1.788,7.04,3.008C126.506,413.317,128.207,416.473,130.525,421.454Z" transform="translate(-33.013 -278.499)"/><path class="f" d="M95.57,422.524s2.959-17.2.912-19.727-2.466,9.383-2.466,9.383S87.2,387.324,82.8,387.237,88.024,408.8,88.024,408.8s-18.852-30.786-24.289-27.926S83.462,411,83.462,411s-13.772-11.849-16.8-8.495,15.288,13.562,15.288,13.562-8.076-1.812-8.063.875S87.482,424.053,95.57,422.524Z" transform="translate(-38.238 -283.404)"/><path class="l" d="M95.57,422.524s2.959-17.2.912-19.727-2.466,9.383-2.466,9.383S87.2,387.324,82.8,387.237,88.024,408.8,88.024,408.8s-18.852-30.786-24.289-27.926S83.462,411,83.462,411s-13.772-11.849-16.8-8.495,15.288,13.562,15.288,13.562-8.076-1.812-8.063.875S87.482,424.053,95.57,422.524Z" transform="translate(-38.238 -283.404)"/><path class="f" d="M102.777,423.425s10.764-9.531,10.751-12.206-6.374,4.8-6.374,4.8,8.384-19.517,5.622-21.86-7.755,16.6-7.755,16.6,3.7-29.443-1.233-30.417-2.86,29.492-2.86,29.492-2.749-14.7-6.411-14.1S97.34,412.3,97.34,412.3s-4.254-5.326-5.634-3.588S96.81,420.232,102.777,423.425Z" transform="translate(-31.588 -283.491)"/><path class="l" d="M102.777,423.425s10.764-9.531,10.751-12.206-6.374,4.8-6.374,4.8,8.384-19.517,5.622-21.86-7.755,16.6-7.755,16.6,3.7-29.443-1.233-30.417-2.86,29.492-2.86,29.492-2.749-14.7-6.411-14.1S97.34,412.3,97.34,412.3s-4.254-5.326-5.634-3.588S96.81,420.232,102.777,423.425Z" transform="translate(-31.588 -283.491)"/><path class="f" d="M112.7,420.7h-36s7.176-10.961,10.233-9.568c3.97,1.812,6.917-8.125,11.318-5.77,1.553.826.789,3.477,1.763,4.55,1.615,1.775,3.7,1.43,5.622,2.4C109.459,414.211,110.815,416.726,112.7,420.7Z" transform="translate(-35.039 -277.741)"/></g><g transform="translate(145.561 217.979)"><path class="n" d="M188.1,226.766s-41.451-6.461-49.317-3.07-10.517,15.584-10.517,15.584-1.418,2.466,2.873,2.786c0,0-17.545,43.707-12,52.079s61.425,11.725,69.044,7.62S213.9,229.885,188.1,226.766Z" transform="translate(-118.06 -178.913)"/><path class="o" d="M196.487,259.82s5.487,12.736,6.719,14.512,28.542,14.327,28.542,14.327a24.107,24.107,0,0,1,6.67,0c3.366.53,8,1.948,8.421,2.466s-5.067,8.495-5.067,8.495-10.911.678-12.329-3.637c0,0-27.359-10.159-30.54-12.823s-12.033-18.4-12.033-18.4Z" transform="translate(-102.032 -170.269)"/><path class="f" d="M189.972,237.2c5.129,3.058,13.155,35.977,14.882,39.885S227.54,290.5,227.54,290.5l-9.3,8.9S197,289.97,194.362,287.331s-13.242-30-13.242-30Z" transform="translate(-103.372 -175.538)"/><path class="n" d="M198.918,301.535s86.453-12.416,91.015,6.547c4.821,20.06-64.593,33.585-106.032,35s-53.423-7.694-46.765-58.959l55.975-.136Z" transform="translate(-114.019 -164.639)"/><path class="j" d="M198.918,301.535s86.453-12.416,91.015,6.547c4.821,20.06-64.593,33.585-106.032,35s-53.423-7.694-46.765-58.959l55.975-.136Z" transform="translate(-114.019 -164.639)"/><path class="f" d="M250.326,323.033a.259.259,0,0,1-.308,0,.21.21,0,0,1-.074-.259c.136-.456,1.5-4.451,2.9-4.87a.863.863,0,0,1,.826.247,1.418,1.418,0,0,1,.493,1.344,3.7,3.7,0,0,1-1.295,1.874,15.094,15.094,0,0,1-2.54,1.664Zm.345-.764a5.942,5.942,0,0,0,2.959-2.848.9.9,0,0,0-.345-.912.308.308,0,0,0-.333-.1,1.233,1.233,0,0,0-.321.2A11.662,11.662,0,0,0,250.671,322.269Z" transform="translate(-87.345 -156.745)"/><path class="f" d="M250.574,323.148a.247.247,0,0,1-.259-.074c-.136-.123-2.047-2.54-1.738-4.167a1.6,1.6,0,0,1,.666-1,.888.888,0,0,1,1.11-.111c1,.715.875,3.945.382,5.178v.123Zm-1.1-4.747a1.06,1.06,0,0,0-.333.579c-.2,1.036.764,2.589,1.233,3.329.321-1.381.222-3.7-.37-4.056a.428.428,0,0,0-.481.074l-.1.074Z" transform="translate(-87.667 -156.798)"/><path class="o" d="M225.96,332.725l18.124.012,8.692.012,1.036-9.161-8.039-1.073L226.12,319.89Z" transform="translate(-92.927 -156.277)"/><path class="n" d="M247.421,324.915l-2.207,10.443a1.048,1.048,0,0,0,.851,1.233l5.2.937s6.917,1.763,8.865.518c5.672-3.625,11.1-26.619,8.828-28.357-.838-.616-2.306.321-3.033,1.073-2.33,2.38-7.3,9.013-9.272,10.985-2.293,2.293-6.374,2.355-8.162,2.269a1.048,1.048,0,0,0-1.073.9Z" transform="translate(-88.447 -158.7)"/><path class="j" d="M225.96,332.725l18.124.012,1.689-10.221L226.12,319.89Z" transform="translate(-92.927 -156.277)"/><path class="n" d="M170.45,297.71V300a2.971,2.971,0,0,0,2.836,2.959h84.32A3.156,3.156,0,0,0,260.651,300V297.71Z" transform="translate(-105.857 -161.443)"/><path class="l" d="M170.45,297.71V300a2.971,2.971,0,0,0,2.836,2.959h84.32A3.156,3.156,0,0,0,260.651,300V297.71Z" transform="translate(-105.857 -161.443)"/><path class="l" d="M196,297.71V300a2.984,2.984,0,0,0,2.848,2.959h52.844A3.156,3.156,0,0,0,254.737,300V297.71Z" transform="translate(-99.906 -161.443)"/><path class="n" d="M198.717,308.979h55.7A4.562,4.562,0,0,0,258.477,306l12.773-40.07a2.219,2.219,0,0,0-2.145-3.095H213.4a4.636,4.636,0,0,0-4.044,3.095l-12.773,40.021a2.17,2.17,0,0,0,2.133,3.033Z" transform="translate(-99.812 -169.568)"/><path class="l" d="M198.717,308.979h55.7A4.562,4.562,0,0,0,258.477,306l12.773-40.07a2.219,2.219,0,0,0-2.145-3.095H213.4a4.636,4.636,0,0,0-4.044,3.095l-12.773,40.021a2.17,2.17,0,0,0,2.133,3.033Z" transform="translate(-99.812 -169.568)"/><path class="l" d="M200.442,308.979H254.05A4.562,4.562,0,0,0,258.106,306l12.773-40.07a2.219,2.219,0,0,0-2.145-3.095H215.1a4.636,4.636,0,0,0-4.044,3.095l-12.773,40.021a2.17,2.17,0,0,0,2.158,3.033Z" transform="translate(-99.416 -169.568)"/><path class="l" d="M226.454,283.913c-.69,2.663.641,4.833,2.971,4.833s4.759-2.17,5.45-4.833-.641-4.833-2.959-4.833S227.17,281.287,226.454,283.913Z" transform="translate(-92.854 -165.783)"/><path class="l" d="M247.421,324.915l-2.207,10.443a1.048,1.048,0,0,0,.851,1.233l5.2.937s6.917,1.763,8.865.518c5.672-3.625,11.1-26.619,8.828-28.357-.838-.616-2.306.321-3.033,1.073-2.33,2.38-7.3,9.013-9.272,10.985-2.293,2.293-6.374,2.355-8.162,2.269a1.048,1.048,0,0,0-1.073.9Z" transform="translate(-88.447 -158.7)"/><path d="M153.563,291.092l-17.483.222.333-5.684,17.15-.37Z" transform="translate(-113.863 -164.343)"/><path d="M178.24,284.671l5.228-.111,1.874,6.14-7.1.1Z" transform="translate(-104.042 -164.506)"/><path d="M182.018,284.69v6.1l-29.578.395v-5.856Z" transform="translate(-110.052 -164.476)"/><path class="p" d="M162.627,289.738l-.086-2.38a2.343,2.343,0,0,1,2.158-2.466l5.351-.222a2.182,2.182,0,0,1,1.615.629,2.466,2.466,0,0,1,.727,1.677l.086,2.367a2.355,2.355,0,0,1-2.17,2.466l-5.339.222h-.1A2.33,2.33,0,0,1,162.627,289.738Zm7.644,1.073a1.369,1.369,0,0,0,1.233-1.455l-.086-2.367a1.48,1.48,0,0,0-.432-.974,1.233,1.233,0,0,0-.937-.37l-5.351.222a1.356,1.356,0,0,0-1.233,1.455l.086,2.38a1.344,1.344,0,0,0,1.369,1.344Z" transform="translate(-107.7 -164.481)"/><path class="p" d="M163.466,288.383h2.688a.629.629,0,0,0,.616-.617.616.616,0,0,0-.616-.616h-2.688a.616.616,0,0,0-.616.616.629.629,0,0,0,.616.616Z" transform="translate(-107.627 -163.903)"/><path class="f" d="M200.825,239.612s-6.744,42.647-3.921,57.948l-62.374,1.812s7.4-44.053,17.2-60.673C151.729,238.651,168.017,211.452,200.825,239.612Z" transform="translate(-114.224 -177.95)"/><path class="k" d="M200.825,239.612s-6.744,42.647-3.921,57.948l-62.374,1.812s7.4-44.053,17.2-60.673C151.729,238.651,168.017,211.452,200.825,239.612Z" transform="translate(-114.224 -177.95)"/><path class="o" d="M158.62,233.127s10.344,10.11,16.324,8.458,8.224-4.7,8.224-4.7-4.808-2.108-4.278-3.255c.062-.123.21-.358.419-.7,1.788-2.712,8.125-11.368,8.125-11.368l-13.562-7.632s-1.11,2.626-2.466,5.758c-1.837,4.167-4.13,9.21-4.932,10.147C165.068,231.487,158.62,233.127,158.62,233.127Z" transform="translate(-108.613 -180.958)"/><path class="j" d="M168.94,219.688c.851,4.808,2.947,10.468,7.965,13.242,1.788-2.712,8.125-11.368,8.125-11.368l-13.562-7.632S170.309,216.556,168.94,219.688Z" transform="translate(-106.209 -180.958)"/><path class="n" d="M167.613,211a23.586,23.586,0,0,0-1.1,7.4c.259,3.058-3.144,4.081-3.575,2.232,0,0,.062,4.5,2.984,3.822,0,0,0,3.119,2.614,3.169a17.261,17.261,0,0,0,3.28-10.566C171.41,211.123,167.613,211,167.613,211Z" transform="translate(-107.606 -181.641)"/><path class="n" d="M186.259,198.992c-4.439,1.837-3.7,12.144,3.7,20.96,4.525-3.9,6.584-12.9,5.511-16.447C193.743,197.82,190.118,197.4,186.259,198.992Z" transform="translate(-102.814 -184.625)"/><path class="o" d="M195.98,224.323h0a30.948,30.948,0,0,1-1.406,3.452c-4.377,8.914-16.965,10.653-22.538,1.837l-.062-.086c-3.7-5.943-2.306-11.479-.764-21.083a13.279,13.279,0,0,1,20.726-8.9C199.2,204.658,198.766,216.124,195.98,224.323Z" transform="translate(-106.05 -184.866)"/><path class="n" d="M181.89,211.235c-.173.777.1,1.492.592,1.6s1.048-.419,1.233-1.233-.086-1.492-.592-1.6S182.112,210.52,181.89,211.235Z" transform="translate(-103.204 -181.876)"/><path class="n" d="M189.01,212.868c-.173.764.1,1.48.6,1.59s1.048-.407,1.233-1.233-.1-1.492-.6-1.6S189.158,212.091,189.01,212.868Z" transform="translate(-101.546 -181.499)"/><path class="q" d="M186.9,212.4a28.432,28.432,0,0,0,2.207,7.4,4.525,4.525,0,0,1-3.834-.148Z" transform="translate(-102.405 -181.315)"/><path class="n" d="M180.517,208.718a.506.506,0,0,1-.271-.123.481.481,0,0,1,0-.666,4.574,4.574,0,0,1,4.106-1.036.444.444,0,0,1,.321.543h0a.481.481,0,0,1-.579.321h0a3.625,3.625,0,0,0-3.23.851A.469.469,0,0,1,180.517,208.718Z" transform="translate(-103.607 -182.626)"/><path class="n" d="M193.27,211.732a.518.518,0,0,1-.358-.358,3.7,3.7,0,0,0-2.084-2.614.464.464,0,1,1,.308-.875,4.6,4.6,0,0,1,2.675,3.28.456.456,0,0,1-.333.555h0A.518.518,0,0,1,193.27,211.732Z" transform="translate(-101.182 -182.372)"/><path class="n" d="M184.91,223.054h0a7.077,7.077,0,0,1-5.918-4.513.345.345,0,0,1,.234-.419.358.358,0,0,1,.432.234c0,.136,1.011,3.267,5.363,4.019a.358.358,0,0,1,.284.395.345.345,0,0,1-.395.284Z" transform="translate(-103.87 -179.985)"/><path class="n" d="M198.34,207.92s2.86-2.195,2.749-4.759a9.432,9.432,0,0,0-5.03-7.78,18.334,18.334,0,0,0-8.963-2.466c-10.924-.641-16.867,2.638-18.741,8.47-1.159,2.071-1.134,5.918-.1,9.518a.111.111,0,0,1,0,.062h0a15.83,15.83,0,0,0,2.848,5.647c6.658-5.77,9.136-9.863,8.088-12.576.222-.062,3.526-3.021,4.993-3.095,2.121-.111,6.029,1.9,9.2,3.785,1.738,1.023,3.526-.616,3.526-.616Z" transform="translate(-106.548 -185.872)"/><path class="o" d="M165.852,212.556a9.223,9.223,0,0,0,3.07,6.362c2.466,2.121,5.055.271,5.536-2.749.444-2.725-.3-7.126-3.3-8.088S165.679,209.56,165.852,212.556Z" transform="translate(-106.93 -182.37)"/><path class="f" d="M166.518,223.858s4.044-15.72,14.043-21.576,20.368-1.763,20.368-1.763a31.458,31.458,0,0,0-.678-4.685c-.3-.493-5.252-2.195-5.252-2.195s-2.823-4.155-6.744-5.487-15.634-1.714-19.727,1.7-6.793,10.369-5.067,10.492,3.045.123,3.045.123-3.23,11.158-1.849,12.835C164.668,213.292,162.277,221.059,166.518,223.858Z" transform="translate(-107.609 -187.188)"/><path class="f" d="M182.451,333.764a.308.308,0,0,1,.284-.123.2.2,0,0,1,.173.2c.1.469.74,4.636-.3,5.659a.875.875,0,0,1-.838.173,1.406,1.406,0,0,1-1.06-.962,3.7,3.7,0,0,1,.271-2.256,14.955,14.955,0,0,1,1.467-2.688Zm0,.851a5.918,5.918,0,0,0-1.233,3.9.888.888,0,0,0,.727.641.3.3,0,0,0,.333-.062.875.875,0,0,0,.2-.321,11.48,11.48,0,0,0,.012-4.155Z" transform="translate(-103.482 -153.074)"/><path class="o" d="M209.3,317.19,192.111,322.9l-8.261,2.749,1.911,9.013,7.977-1.516,19.468-3.724Z" transform="translate(-102.736 -156.906)"/><path class="n" d="M190.732,333.923l-1.233-10.6a1.06,1.06,0,0,0-1.233-.937l-5.191.764s-7.114.518-8.569,2.306c-4.241,5.24-2.158,28.777.579,29.664,1,.321,2.084-1.036,2.54-1.973,1.455-3,4.081-10.862,5.314-13.353,1.455-2.9,5.3-4.254,7.028-4.734A1.048,1.048,0,0,0,190.732,333.923Z" transform="translate(-105.475 -155.7)"/><path class="f" d="M182.152,333.689a.222.222,0,0,1,.271,0c.16,0,2.984,1.233,3.465,2.873a1.5,1.5,0,0,1-.123,1.233.888.888,0,0,1-.925.6c-1.233-.16-2.614-3.082-2.749-4.389v-.136A.222.222,0,0,1,182.152,333.689Zm3.181,3.7a1.024,1.024,0,0,0,0-.666c-.3-1.011-1.874-1.936-2.675-2.343.358,1.369,1.5,3.329,2.219,3.415.074,0,.222,0,.382-.3l.062-.111Z" transform="translate(-103.146 -153.073)"/><path class="j" d="M207.737,317.19,190.55,322.9l1.627,10.246,19.468-3.724Z" transform="translate(-101.175 -156.906)"/><path class="f" d="M194.982,334.537l4.907.456-2.934-16.953L191.32,321Z" transform="translate(-100.996 -156.708)"/><path class="k" d="M194.982,334.537l4.907.456-2.934-16.953L191.32,321Z" transform="translate(-100.996 -156.708)"/><path class="l" d="M190.732,333.923l-1.233-10.6a1.06,1.06,0,0,0-1.233-.937l-5.191.764s-7.114.518-8.569,2.306c-4.241,5.24-2.158,28.777.579,29.664,1,.321,2.084-1.036,2.54-1.973,1.455-3,4.081-10.862,5.314-13.353,1.455-2.9,5.3-4.254,7.028-4.734A1.048,1.048,0,0,0,190.732,333.923Z" transform="translate(-105.475 -155.7)"/><path class="n" d="M263.034,325.968S182.6,294.726,157.975,299.941s-24.757,18.112-12.329,30.133,31.144,7.4,31.144,7.4-14.66-8.779-13.636-14.2,10.344,6.978,10.344,6.978,48.6,11.885,88.771,8.754Z" transform="translate(-113.528 -161.06)"/><path class="f" d="M241.454,320.271l-4.513-2.071-2.6,16.928,6.288-1.023Z" transform="translate(-90.975 -156.67)"/><path class="k" d="M241.454,320.271l-4.513-2.071-2.6,16.928,6.288-1.023Z" transform="translate(-90.975 -156.67)"/><path class="f" d="M160.369,226.84s10.887,29.59,10.32,36.236-22.994,56.431-22.994,56.431L129.2,326.9S133.01,253.78,160.369,226.84Z" transform="translate(-115.466 -177.951)"/><path class="j" d="M160.369,226.84s10.887,29.59,10.32,36.236-22.994,56.431-22.994,56.431L129.2,326.9S133.01,253.78,160.369,226.84Z" transform="translate(-115.466 -177.951)"/><path class="f" d="M187.866,311.914s-5.819-13.8-7.681-21.441,4.648-46.913,1.147-60.093l8.939,8.409-3.785,49.071Z" transform="translate(-103.669 -177.127)"/><path class="j" d="M187.866,311.914s-5.819-13.8-7.681-21.441,4.648-46.913,1.147-60.093l8.939,8.409-3.785,49.071Z" transform="translate(-103.669 -177.127)"/><path class="n" d="M132.943,291.139s38.579,7.4,32.475-63.077l-6.276-.542s3.822,26.779-3.218,44.3-23.635,16.706-23.635,16.706Z" transform="translate(-114.746 -177.793)"/><path class="f" d="M165.873,260.353l-12.946-30.059-3.908,5.166s-.69-7.287,1.578-9.407,8.631.53,11.1,1.159S165.873,260.353,165.873,260.353Z" transform="translate(-110.872 -178.323)"/><path class="n" d="M179.22,230.76s4.993,14.8,4.18,37.95,3.354,21.231,3.354,21.231l.592-2.182s-2.33-.271-2.145-8.076,1.233-39.306-1.8-47.579Z" transform="translate(-103.814 -177.038)"/><path class="f" d="M182.286,258.567s1.233-22.193-5.006-28.69c0,0,4.673-1.751,6.572,0s2.367,18.654-1.356,29.59" transform="translate(-104.266 -177.425)"/><path class="o" d="M157.777,260.36s5.647,13.106,6.917,14.931,29.368,14.8,29.368,14.8a24.968,24.968,0,0,1,6.867,0c3.465.543,8.236,2,8.631,2.552s-5.215,8.741-5.215,8.741-11.232.69-12.625-3.7c0,0-28.16-10.455-31.428-13.192S148,265.452,148,265.452Z" transform="translate(-111.086 -170.143)"/><path class="f" d="M151.917,236.51c6.017,0,14.462,36.729,16.028,41.71s26.52,15.609,26.52,15.609l-7.928,9.383s-26.977-9.74-30.145-14.216-12.773-29.96-13.217-35.854S147.9,236.5,151.917,236.51Z" transform="translate(-112.217 -175.699)"/></g></g></svg>